# xmcd
#
# Track frame offsets:
#	150
#	17678
#	33140
#	45892
#	63901
#	78486
#	90691
#	106751
#	123830
#	135302
#	149435
#	165637
#	181198
#
# Disc length: 2555 seconds
#
# Revision: 0
# Processed by: cddbd v1.5PL3 Copyright (c) Steve Scherf et al.
# Submitted via: dBpowerAMP V4.0
#
DISCID=9409f90d
DTITLE=Jeannie Seely - Life's Highway
DYEAR=1900
DGENRE=Country
TTITLE0=Life's Highway
TTITLE1=The Next Voice You Hear
TTITLE2=Fast Movin' Train
TTITLE3=I'll Be All Smiles Tonight
TTITLE4=The River
TTITLE5=I've Got My Baby on My Mind
TTITLE6=The Good Old Days - with The Whites
TTITLE7=It's A Heartache
TTITLE8=If It Ain't Love
TTITLE9=Rose Upon the Riverbank
TTITLE10=Roarin' and Runnin' - with Jesse McReynolds
TTITLE11=Cry Myself to Sleep - with Charlie Louvin
TTITLE12=Call of Kentucky - with the Osborne Brothers
EXTD=
EXTT0=
EXTT1=
EXTT2=
EXTT3=
EXTT4=
EXTT5=
EXTT6=
EXTT7=
EXTT8=
EXTT9=
EXTT10=
EXTT11=
EXTT12=
PLAYORDER=
